<?xml version="1.0" encoding="utf-8"?>
<!DOCTYPE svg PUBLIC "-//W3C//DTD SVG 20010904//EN" "http://www.w3.org/TR/2001/REC-SVG-20010904/DTD/svg10.dtd">
<svg version="1.0" xmlns="http://www.w3.org/2000/svg" width="313pt" height="468pt" viewBox="0 0 313 468" style="" preserveAspectRatio="xMidYMid meet">
<g fill="#DB307AFB" stroke="#DB307AFB">
<path d="M 80.000 9.961 C 79.175 10.516 76.569 10.976 74.210 10.985 C 69.630 11.001 66.428 12.761 59.668 18.976 C 53.574 24.579 52.705 27.068 52.794 38.658 C 52.849 45.881 53.454 50.713 54.862 55.183 C 55.956 58.657 57.819 64.875 59.003 69.000 C 60.860 75.472 66.257 92.217 69.882 102.750 C 70.497 104.538 71.492 107.463 72.093 109.250 C 72.694 111.038 74.044 114.638 75.093 117.250 C 76.142 119.863 77.950 124.363 79.110 127.250 C 81.922 134.245 88.497 152.465 92.013 163.000 C 97.991 180.916 99.264 185.810 98.618 188.384 C 97.678 192.130 91.493 195.000 84.361 195.000 C 81.215 195.000 77.260 195.420 75.571 195.932 C 73.882 196.445 70.475 197.420 68.000 198.100 C 60.096 200.269 52.449 208.937 48.542 220.157 C 46.828 225.079 46.446 240.539 48.014 241.509 C 49.376 242.350 53.000 249.544 53.000 251.404 C 53.000 254.641 48.442 258.299 43.416 259.095 C 29.741 261.263 24.432 263.638 18.239 270.357 C 15.945 272.845 13.805 276.146 13.484 277.691 C 12.738 281.285 11.298 286.965 9.910 291.789 C 8.719 295.925 9.184 306.344 10.945 315.000 C 11.561 318.025 12.472 322.525 12.969 325.000 C 13.467 327.475 14.390 331.525 15.019 334.000 C 15.648 336.475 16.400 340.300 16.690 342.500 C 16.980 344.700 17.808 347.175 18.532 348.000 C 19.255 348.825 20.964 352.650 22.328 356.500 C 26.362 367.882 27.407 370.368 29.250 372.973 C 30.213 374.332 31.000 376.028 31.000 376.741 C 31.000 378.659 40.394 397.031 43.970 402.107 C 45.672 404.523 48.621 408.525 50.523 411.000 C 52.426 413.475 54.744 416.625 55.676 418.000 C 58.554 422.250 61.356 425.141 65.000 427.625 C 66.925 428.937 70.525 431.577 73.000 433.492 C 82.174 440.592 98.894 446.816 117.668 450.120 C 128.550 452.035 134.071 452.378 154.000 452.382 C 174.463 452.385 178.816 452.101 187.688 450.186 C 205.018 446.446 221.722 439.936 234.574 431.914 C 243.392 426.409 262.816 408.752 270.054 399.659 C 278.519 389.027 286.552 373.243 290.747 359.000 C 298.382 333.082 298.762 331.616 301.912 316.000 C 304.772 301.821 307.490 269.108 306.377 262.268 C 306.130 260.746 305.709 251.979 305.442 242.787 C 304.920 224.821 305.124 225.588 298.251 215.727 C 297.014 213.952 295.250 211.339 294.331 209.920 C 293.411 208.502 291.498 206.599 290.080 205.693 C 288.661 204.787 285.475 202.490 283.000 200.589 C 280.525 198.688 277.929 197.103 277.232 197.066 C 275.025 196.951 256.000 187.027 256.000 185.991 C 256.000 185.446 255.334 185.000 254.519 185.000 C 250.873 185.000 252.342 175.440 258.514 159.000 C 260.537 153.614 263.011 145.924 264.145 141.500 C 264.709 139.300 265.611 136.575 266.150 135.445 C 266.689 134.314 267.047 132.964 266.946 132.445 C 266.846 131.925 266.831 131.725 266.914 132.000 C 267.184 132.893 271.090 121.621 272.030 117.236 C 272.533 114.890 273.504 111.965 274.187 110.736 C 274.870 109.506 275.450 108.275 275.476 108.000 C 275.527 107.455 277.693 101.698 279.051 98.500 C 279.517 97.400 280.572 94.475 281.395 92.000 C 282.218 89.525 283.811 84.937 284.935 81.805 C 286.059 78.672 286.682 75.336 286.320 74.391 C 285.934 73.387 286.064 72.921 286.631 73.272 C 288.845 74.640 292.388 56.145 291.787 46.359 C 291.328 38.904 291.043 38.115 286.230 31.000 C 277.310 17.812 274.961 16.360 260.878 15.330 C 254.804 14.886 253.679 15.137 247.284 18.357 C 240.646 21.700 239.153 23.062 231.698 32.585 C 228.607 36.533 221.545 50.666 216.998 62.000 C 215.785 65.025 213.091 71.325 211.012 76.000 C 206.032 87.198 201.731 97.226 199.003 104.000 C 197.784 107.025 195.935 111.425 194.894 113.777 C 193.852 116.129 192.993 118.829 192.985 119.777 C 192.966 122.050 190.449 129.200 187.927 134.143 C 186.817 136.319 184.563 142.240 182.919 147.300 C 179.312 158.398 175.406 163.090 171.510 161.005 C 168.569 159.431 163.770 151.874 161.981 146.000 C 161.228 143.525 159.799 140.427 158.806 139.115 C 157.813 137.803 157.000 135.678 157.000 134.392 C 157.000 133.106 156.153 130.129 155.118 127.777 C 154.083 125.425 151.850 120.350 150.155 116.500 C 148.460 112.650 145.664 105.450 143.941 100.500 C 137.822 82.916 136.473 79.471 134.747 77.027 C 133.786 75.668 133.000 73.973 133.000 73.262 C 133.000 72.551 130.300 66.583 127.000 60.000 C 123.700 53.417 121.000 47.082 121.000 45.923 C 121.000 44.764 120.100 42.671 119.000 41.273 C 117.900 39.874 117.000 37.946 117.000 36.988 C 117.000 36.029 116.281 34.648 115.401 33.918 C 114.522 33.188 111.871 29.646 109.511 26.046 C 103.313 16.594 98.381 12.759 90.000 10.876 C 88.075 10.443 85.375 9.834 84.000 9.521 C 82.625 9.208 80.825 9.406 80.000 9.961 M 192.000 192.408 C 226.330 193.504 259.554 201.153 274.930 211.500 C 288.687 220.758 291.551 230.573 290.684 265.500 C 289.234 323.922 275.277 369.765 250.811 396.465 C 226.534 422.959 195.764 435.748 154.500 436.498 C 117.709 437.166 97.778 432.659 79.589 419.561 C 59.490 405.087 41.719 377.039 29.498 340.500 C 27.003 333.042 22.225 312.532 21.507 306.201 C 20.523 297.526 22.442 288.061 26.378 282.171 C 30.224 276.417 39.424 271.063 45.500 271.043 C 50.178 271.028 51.236 271.584 54.254 275.643 C 55.490 277.304 58.405 280.876 60.734 283.581 C 63.063 286.287 67.788 292.145 71.234 296.599 C 74.680 301.053 79.750 307.422 82.500 310.753 C 90.366 320.278 106.514 342.152 108.457 345.913 C 113.272 355.235 105.576 365.441 95.185 363.515 C 89.776 362.512 86.505 360.122 76.500 349.854 C 59.707 332.621 57.877 330.874 56.956 331.187 C 56.450 331.359 57.433 334.650 59.141 338.500 C 60.849 342.350 62.589 346.400 63.008 347.500 C 73.399 374.785 80.994 381.836 98.879 380.801 C 105.675 380.407 107.508 379.882 111.879 377.078 C 119.350 372.283 123.765 365.753 124.852 357.887 C 125.820 350.888 125.002 341.413 122.939 335.707 C 122.211 333.696 121.850 331.817 122.134 331.532 C 122.932 330.734 132.865 329.000 136.636 329.000 C 140.457 329.000 140.202 327.866 140.012 344.000 C 139.897 353.843 141.549 363.293 144.323 368.657 C 146.712 373.278 155.324 382.321 159.452 384.544 C 164.933 387.496 165.384 385.397 161.299 375.950 C 156.514 364.881 155.107 357.376 155.612 345.605 C 156.085 334.588 158.163 328.925 165.947 317.451 C 173.000 307.054 190.674 290.413 205.500 280.209 C 208.800 277.938 215.325 273.392 220.000 270.107 C 224.675 266.822 231.425 262.340 235.000 260.149 C 242.071 255.813 249.571 248.733 248.658 247.256 C 248.042 246.260 244.876 245.571 206.000 237.984 C 191.975 235.247 175.775 232.082 170.000 230.950 C 156.317 228.269 147.879 224.936 139.855 219.044 C 129.477 211.423 126.623 203.521 132.316 198.173 C 136.725 194.031 141.758 192.822 157.467 192.131 C 165.735 191.767 173.175 191.562 174.000 191.675 C 174.825 191.788 182.925 192.118 192.000 192.408 M 87.800 24.415 C 94.045 27.686 99.852 36.252 109.392 56.264 C 112.476 62.735 115.000 68.206 115.000 68.422 C 115.000 68.638 117.041 73.182 119.535 78.520 C 122.029 83.857 125.221 90.987 126.630 94.362 C 128.038 97.738 129.797 101.850 130.538 103.500 C 131.278 105.150 135.286 114.976 139.444 125.336 C 152.556 158.004 157.750 173.918 155.713 175.178 C 155.081 175.568 151.625 176.195 148.032 176.571 C 140.228 177.388 127.042 181.954 120.493 186.106 C 117.895 187.754 115.048 188.963 114.166 188.793 C 113.190 188.605 112.038 186.533 111.220 183.492 C 109.198 175.971 103.554 158.571 100.031 149.000 C 98.310 144.325 94.701 133.975 92.011 126.000 C 89.321 118.025 85.922 108.575 84.458 105.000 C 79.676 93.328 76.891 85.768 70.825 68.000 C 63.537 46.651 62.434 37.980 66.195 31.575 C 70.368 24.468 81.108 20.909 87.800 24.415 M 271.359 33.419 C 273.902 37.564 274.442 39.607 274.793 46.419 C 275.306 56.370 273.760 63.190 264.011 94.000 C 241.184 166.140 236.787 178.687 234.138 179.236 C 233.237 179.422 230.250 179.230 227.500 178.808 C 224.750 178.386 220.250 177.825 217.500 177.561 C 214.750 177.298 207.213 176.560 200.750 175.922 L 189.000 174.761 189.000 171.603 C 189.000 169.866 189.605 167.557 190.345 166.473 C 191.084 165.388 191.939 163.600 192.245 162.500 C 192.550 161.400 194.005 157.350 195.478 153.500 C 198.693 145.095 202.704 133.790 204.148 129.062 C 204.725 127.171 206.053 124.027 207.099 122.076 C 208.145 120.126 209.000 118.086 209.000 117.543 C 209.000 116.152 218.044 94.702 219.116 93.550 C 220.509 92.052 220.206 88.766 218.750 89.588 C 218.063 89.976 218.513 89.310 219.750 88.108 C 220.988 86.906 222.069 85.152 222.152 84.211 C 222.351 81.976 222.732 80.369 222.913 81.000 C 222.992 81.275 224.199 78.575 225.595 75.000 C 230.235 63.118 240.133 43.561 243.814 39.000 C 250.427 30.806 255.510 27.951 262.921 28.268 C 268.257 28.496 268.389 28.577 271.359 33.419 M 89.123 207.017 C 93.760 208.306 100.700 214.419 105.216 221.194 C 107.161 224.112 112.895 233.475 117.958 242.000 C 123.020 250.525 128.997 260.425 131.239 264.000 C 133.481 267.575 137.945 275.215 141.158 280.977 C 145.880 289.446 146.999 292.321 146.996 295.977 C 146.992 301.564 144.470 305.923 138.915 309.947 C 130.742 315.867 123.975 314.914 115.150 306.601 C 109.053 300.857 96.834 286.187 86.332 272.000 C 82.464 266.775 75.865 258.225 71.666 253.000 C 67.468 247.775 63.126 241.592 62.016 239.261 C 59.767 234.533 59.292 225.252 61.117 221.684 C 63.106 217.795 70.395 210.904 74.500 209.035 C 81.343 205.918 83.896 205.566 89.123 207.017 M 155.988 244.601 C 163.420 246.581 173.325 249.263 178.000 250.560 C 182.675 251.857 190.438 253.905 195.250 255.111 C 205.669 257.721 206.348 259.189 199.250 263.761 C 196.638 265.443 188.112 271.581 180.305 277.400 C 171.692 283.819 165.532 287.758 164.640 287.415 C 163.831 287.105 161.487 283.622 159.431 279.676 C 152.193 265.780 148.640 259.469 146.332 256.406 C 145.049 254.704 144.000 252.809 144.000 252.196 C 144.000 251.583 142.904 250.050 141.565 248.790 C 140.225 247.531 138.826 245.263 138.456 243.750 C 137.866 241.340 138.073 241.000 140.130 241.000 C 141.420 241.000 148.557 242.620 155.988 244.601 M 92.546 210.038 C 93.665 210.967 92.986 211.252 89.227 211.428 C 81.936 211.771 76.791 213.631 72.149 217.604 C 69.814 219.603 68.132 221.465 68.410 221.743 C 68.688 222.021 68.067 222.980 67.031 223.874 C 65.994 224.768 64.213 227.293 63.073 229.485 L 61.000 233.470 61.000 229.375 C 61.000 226.668 61.838 224.044 63.470 221.640 C 64.828 219.638 65.727 218.000 65.467 218.000 C 63.885 218.000 73.668 210.516 76.753 209.365 C 80.970 207.793 90.321 208.192 92.546 210.038 "/></g>
<g fill="#FBFBFBFB" stroke="#FBFBFBFB">
<path d="M 157.467 192.131 C 141.758 192.822 136.725 194.031 132.316 198.173 C 126.623 203.521 129.477 211.423 139.855 219.044 C 147.879 224.936 156.317 228.269 170.000 230.950 C 175.775 232.082 191.975 235.247 206.000 237.984 C 244.876 245.571 248.042 246.260 248.658 247.256 C 249.571 248.733 242.071 255.813 235.000 260.149 C 231.425 262.340 224.675 266.822 220.000 270.107 C 215.325 273.392 208.800 277.938 205.500 280.209 C 190.674 290.413 173.000 307.054 165.947 317.451 C 158.163 328.925 156.085 334.588 155.612 345.605 C 155.104 357.453 156.513 364.880 161.426 376.243 C 165.502 385.670 165.039 387.553 159.396 384.514 C 155.315 382.316 146.699 373.253 144.323 368.657 C 141.549 363.293 139.897 353.843 140.012 344.000 C 140.202 327.866 140.457 329.000 136.636 329.000 C 132.865 329.000 122.932 330.734 122.134 331.532 C 121.850 331.817 122.211 333.696 122.939 335.707 C 125.002 341.413 125.820 350.888 124.852 357.887 C 123.764 365.760 119.349 372.284 111.856 377.092 C 107.400 379.952 105.704 380.427 98.611 380.799 C 92.582 381.115 89.469 380.805 86.585 379.600 C 84.444 378.705 82.496 378.170 82.256 378.410 C 82.016 378.650 79.798 376.744 77.327 374.173 C 73.368 370.054 64.000 353.056 64.000 349.990 C 64.000 349.431 63.598 348.191 63.106 347.236 C 59.718 340.656 56.190 331.448 56.956 331.187 C 57.877 330.874 59.707 332.621 76.500 349.854 C 86.505 360.122 89.776 362.512 95.185 363.515 C 105.576 365.441 113.272 355.235 108.457 345.913 C 106.431 341.990 88.818 318.086 84.827 313.842 C 83.357 312.279 82.402 311.000 82.704 311.000 C 83.007 311.000 81.510 309.086 79.377 306.747 C 77.245 304.407 72.800 298.900 69.500 294.508 C 66.200 290.116 62.004 284.871 60.175 282.853 C 58.346 280.836 55.760 277.708 54.429 275.904 C 51.233 271.572 50.235 271.028 45.500 271.043 C 39.424 271.063 30.224 276.417 26.378 282.171 C 22.442 288.061 20.523 297.526 21.507 306.201 C 22.225 312.532 27.003 333.042 29.498 340.500 C 37.067 363.130 50.605 390.980 53.243 389.350 C 53.863 388.967 54.017 389.163 53.612 389.819 C 53.227 390.442 55.234 393.984 58.091 397.724 C 81.364 428.193 104.280 437.409 154.500 436.498 C 189.441 435.863 214.156 427.650 237.404 408.949 C 261.852 389.281 274.735 365.579 284.443 322.403 C 288.139 305.969 290.082 288.672 290.713 266.611 C 291.335 244.831 290.212 232.896 286.780 224.786 C 285.682 222.193 284.496 220.109 284.142 220.154 C 283.789 220.200 283.628 220.184 283.785 220.118 C 283.942 220.053 283.573 219.070 282.965 217.934 C 281.011 214.283 267.915 206.652 257.977 203.374 C 238.666 197.003 215.541 193.160 192.000 192.408 C 182.925 192.118 174.825 191.788 174.000 191.675 C 173.175 191.562 165.735 191.767 157.467 192.131 M 250.973 253.857 C 250.938 254.685 244.151 262.000 243.418 262.000 C 242.718 262.000 213.355 281.932 206.000 287.401 C 197.050 294.056 188.500 301.269 188.500 302.165 C 188.500 302.624 188.116 302.952 187.646 302.894 C 186.183 302.712 178.053 311.276 178.698 312.320 C 179.034 312.864 178.839 313.018 178.264 312.663 C 177.338 312.091 174.160 315.745 173.849 317.739 C 173.784 318.158 172.884 319.093 171.849 319.818 C 170.814 320.544 170.196 321.509 170.478 321.964 C 170.759 322.418 170.363 323.030 169.599 323.324 C 167.769 324.026 160.794 338.020 161.437 339.697 C 161.712 340.414 161.445 341.000 160.844 341.000 C 160.149 341.000 159.977 342.184 160.374 344.250 C 160.779 346.362 160.679 347.005 160.089 346.088 C 159.425 345.055 158.895 345.860 158.113 349.088 C 157.135 353.126 157.083 352.850 157.503 345.823 C 158.032 336.984 161.191 327.642 165.906 320.976 C 167.648 318.514 170.122 314.925 171.405 313.000 C 174.021 309.074 186.524 297.080 195.902 289.500 C 201.733 284.788 211.195 278.139 234.500 262.381 C 240.000 258.662 245.291 254.820 246.257 253.844 C 247.841 252.243 251.040 252.252 250.973 253.857 M 197.250 194.612 C 203.713 194.947 209.000 195.509 209.000 195.861 C 209.000 196.212 196.385 196.500 180.966 196.500 C 158.377 196.500 152.768 196.765 152.087 197.863 C 151.374 199.014 151.145 199.014 150.621 197.863 C 150.164 196.861 149.851 196.816 149.435 197.694 C 149.125 198.350 148.219 198.638 147.423 198.332 C 146.626 198.026 145.376 198.273 144.645 198.879 C 143.914 199.486 143.062 199.728 142.751 199.418 C 141.837 198.504 135.992 201.932 136.257 203.226 C 136.391 203.877 136.050 204.436 135.500 204.470 C 134.950 204.503 133.938 204.888 133.250 205.324 C 132.393 205.868 132.000 205.450 132.000 203.993 C 132.000 193.871 145.514 191.928 197.250 194.612 M 129.093 355.250 C 129.197 356.659 128.900 363.332 128.580 366.768 C 128.464 368.015 128.061 368.727 127.684 368.351 C 127.308 367.975 127.000 368.353 127.000 369.193 C 127.000 371.593 119.471 379.530 114.247 382.636 C 109.993 385.165 108.566 385.460 100.500 385.479 C 95.004 385.492 90.213 384.957 88.194 384.106 C 83.998 382.336 85.441 380.692 90.034 382.010 C 98.141 384.335 105.105 382.921 113.867 377.172 C 119.100 373.738 126.318 365.324 125.361 363.774 C 125.097 363.349 125.359 363.000 125.941 363.000 C 126.529 363.000 127.000 361.001 127.000 358.500 C 127.000 356.025 127.450 354.000 128.000 354.000 C 128.550 354.000 129.042 354.563 129.093 355.250 M 48.750 272.630 C 51.829 273.456 51.641 276.000 48.500 276.000 C 47.125 276.000 46.000 276.408 46.000 276.906 C 46.000 277.405 45.167 277.595 44.149 277.329 C 43.131 277.063 41.658 277.442 40.875 278.172 C 40.093 278.903 38.788 279.644 37.976 279.820 C 35.881 280.274 29.974 286.149 30.598 287.158 C 30.884 287.621 30.341 288.000 29.392 288.000 C 28.443 288.000 27.928 288.262 28.248 288.582 C 28.568 288.901 28.160 290.765 27.342 292.724 C 26.519 294.693 26.124 297.449 26.458 298.892 C 26.911 300.853 26.809 301.128 26.046 300.000 C 25.238 298.806 25.027 299.050 25.015 301.191 C 25.007 302.671 24.550 304.160 24.000 304.500 C 22.424 305.474 22.807 297.473 24.638 291.174 C 27.489 281.365 33.458 274.825 41.245 272.977 C 45.571 271.951 46.119 271.925 48.750 272.630 M 233.500 199.118 C 235.700 199.688 240.131 200.570 243.348 201.077 C 249.207 202.001 256.520 204.813 255.560 205.773 C 255.279 206.055 254.434 205.775 253.682 205.151 C 252.931 204.528 252.056 204.278 251.737 204.596 C 251.098 205.235 240.939 203.308 237.000 201.801 C 235.625 201.274 231.948 200.702 228.829 200.530 C 225.710 200.357 222.576 199.856 221.865 199.417 C 221.155 198.978 218.997 198.457 217.070 198.259 C 215.143 198.061 213.326 197.637 213.033 197.317 C 212.243 196.453 228.862 197.915 233.500 199.118 M 138.000 331.921 C 138.000 333.286 137.061 334.030 134.750 334.495 C 129.563 335.539 128.034 336.075 128.139 336.811 C 128.193 337.190 128.109 338.288 127.952 339.250 C 127.680 340.917 127.663 340.917 127.583 339.250 C 127.538 338.288 126.668 336.668 125.650 335.650 C 123.329 333.329 124.502 331.972 129.699 330.966 C 136.461 329.657 138.000 329.834 138.000 331.921 M 38.461 355.610 C 38.948 358.083 38.832 357.995 37.658 355.000 C 36.903 353.075 36.001 350.375 35.653 349.000 C 35.177 347.120 35.376 347.271 36.456 349.610 C 37.246 351.321 38.148 354.021 38.461 355.610 M 262.441 207.930 C 261.309 207.968 259.509 207.331 258.441 206.514 C 256.715 205.193 256.943 205.185 260.500 206.444 C 262.974 207.319 263.714 207.886 262.441 207.930 M 167.500 389.000 C 167.160 389.550 166.207 390.000 165.382 390.000 C 164.557 390.000 164.160 389.550 164.500 389.000 C 164.840 388.450 165.793 388.000 166.618 388.000 C 167.443 388.000 167.840 388.450 167.500 389.000 M 44.985 371.809 C 44.971 373.266 44.835 373.293 44.000 372.000 C 42.734 370.042 42.734 368.718 44.000 369.500 C 44.550 369.840 44.993 370.879 44.985 371.809 M 33.914 341.000 C 33.878 341.989 33.567 341.819 33.000 340.500 C 31.819 337.751 31.819 336.172 33.000 338.000 C 33.533 338.825 33.945 340.175 33.914 341.000 M 40.969 362.500 C 40.969 363.050 40.533 362.825 40.000 362.000 C 39.467 361.175 39.031 360.050 39.031 359.500 C 39.031 358.950 39.467 359.175 40.000 360.000 C 40.533 360.825 40.969 361.950 40.969 362.500 "/></g>
<g fill="#FBFBFBFB" stroke="#FBFBFBFB">
<path d="M 72.907 25.325 C 61.879 31.143 61.424 40.464 70.825 68.000 C 76.876 85.724 79.647 93.247 84.453 105.000 C 85.915 108.575 89.610 118.925 92.665 128.000 C 98.115 144.191 99.832 148.495 100.047 146.500 C 100.106 145.950 100.286 146.850 100.447 148.500 C 100.609 150.150 102.207 155.550 104.000 160.500 C 105.792 165.450 108.451 173.771 109.908 178.992 C 111.719 185.483 113.064 188.581 114.163 188.793 C 115.046 188.963 117.895 187.754 120.493 186.106 C 127.042 181.954 140.228 177.388 148.032 176.571 C 151.625 176.195 155.081 175.568 155.713 175.178 C 157.750 173.918 152.556 158.004 139.444 125.336 C 135.286 114.976 131.278 105.150 130.538 103.500 C 129.797 101.850 128.038 97.738 126.630 94.362 C 125.221 90.987 122.029 83.857 119.535 78.520 C 117.041 73.182 115.000 68.638 115.000 68.422 C 115.000 67.382 103.358 43.780 100.241 38.500 C 91.530 23.746 83.363 19.809 72.907 25.325 M 87.904 26.389 C 88.676 27.000 88.826 27.500 88.237 27.500 C 87.648 27.500 86.860 27.806 86.486 28.181 C 86.111 28.556 85.221 28.638 84.507 28.364 C 82.382 27.549 74.853 29.953 75.624 31.201 C 76.001 31.810 75.858 32.030 75.308 31.690 C 74.757 31.350 73.001 32.434 71.405 34.099 C 68.912 36.701 68.499 37.927 68.468 42.813 C 68.448 45.941 68.327 46.925 68.200 45.000 C 68.018 42.231 67.749 41.813 66.913 43.000 C 65.387 45.168 66.823 35.239 68.502 32.013 C 70.378 28.409 74.101 25.239 77.000 24.777 C 80.501 24.219 86.234 25.067 87.904 26.389 M 83.563 91.374 C 83.796 92.659 84.669 95.646 85.504 98.011 C 86.339 100.377 86.838 102.496 86.613 102.720 C 86.389 102.944 85.213 100.145 84.000 96.500 C 82.787 92.855 81.549 90.118 81.248 90.419 C 80.948 90.719 80.594 89.594 80.462 87.919 C 80.231 84.981 80.275 84.947 81.681 86.955 C 82.483 88.100 83.330 90.088 83.563 91.374 M 110.494 168.031 L 111.026 171.500 109.589 168.000 C 107.847 163.756 107.638 162.238 108.981 163.581 C 109.521 164.121 110.202 166.123 110.494 168.031 M 116.500 186.000 C 116.983 187.667 116.891 188.167 116.225 187.500 C 115.675 186.950 114.899 185.375 114.500 184.000 C 114.017 182.333 114.109 181.833 114.775 182.500 C 115.325 183.050 116.101 184.625 116.500 186.000 M 102.934 146.000 C 102.939 147.333 102.845 147.333 102.091 146.000 C 101.624 145.175 100.944 143.375 100.579 142.000 L 99.917 139.500 101.423 142.000 C 102.251 143.375 102.931 145.175 102.934 146.000 M 112.859 177.000 C 112.859 177.945 112.542 177.761 112.000 176.500 C 111.527 175.400 111.141 173.825 111.141 173.000 C 111.141 172.055 111.458 172.239 112.000 173.500 C 112.473 174.600 112.859 176.175 112.859 177.000 M 107.914 161.000 C 107.878 161.989 107.567 161.819 107.000 160.500 C 105.819 157.751 105.819 156.172 107.000 158.000 C 107.533 158.825 107.945 160.175 107.914 161.000 M 88.914 108.000 C 88.878 108.989 88.567 108.819 88.000 107.500 C 86.819 104.751 86.819 103.172 88.000 105.000 C 88.533 105.825 88.945 107.175 88.914 108.000 M 104.969 152.500 C 104.969 153.050 104.533 152.825 104.000 152.000 C 103.467 151.175 103.031 150.050 103.031 149.500 C 103.031 148.950 103.467 149.175 104.000 150.000 C 104.533 150.825 104.969 151.950 104.969 152.500 M 90.969 113.500 C 90.969 114.050 90.533 113.825 90.000 113.000 C 89.467 112.175 89.031 111.050 89.031 110.500 C 89.031 109.950 89.467 110.175 90.000 111.000 C 90.533 111.825 90.969 112.950 90.969 113.500 M 78.969 80.500 C 78.969 81.050 78.533 80.825 78.000 80.000 C 77.467 79.175 77.031 78.050 77.031 77.500 C 77.031 76.950 77.467 77.175 78.000 78.000 C 78.533 78.825 78.969 79.950 78.969 80.500 "/></g>
<g fill="#FBFBFBFB" stroke="#FBFBFBFB">
<path d="M 254.438 29.768 C 249.668 32.466 247.727 34.152 243.814 39.000 C 240.133 43.561 230.235 63.118 225.595 75.000 C 224.199 78.575 222.992 81.275 222.913 81.000 C 222.732 80.369 222.351 81.976 222.152 84.211 C 222.069 85.152 220.988 86.906 219.750 88.108 C 218.513 89.310 218.063 89.976 218.750 89.588 C 220.206 88.766 220.509 92.052 219.116 93.550 C 218.044 94.702 209.000 116.152 209.000 117.543 C 209.000 118.086 208.145 120.126 207.099 122.076 C 206.053 124.027 204.725 127.171 204.148 129.062 C 202.704 133.790 198.693 145.095 195.478 153.500 C 194.005 157.350 192.550 161.400 192.245 162.500 C 191.939 163.600 191.084 165.388 190.345 166.473 C 189.605 167.557 189.000 169.866 189.000 171.603 L 189.000 174.761 200.750 175.922 C 207.213 176.560 214.750 177.298 217.500 177.561 C 220.250 177.825 224.750 178.386 227.500 178.808 C 230.250 179.230 233.237 179.422 234.138 179.236 C 236.787 178.687 241.184 166.140 264.011 94.000 C 273.760 63.190 275.306 56.370 274.793 46.419 C 274.442 39.607 273.902 37.564 271.359 33.419 C 268.389 28.577 268.257 28.496 262.921 28.268 C 259.266 28.112 256.502 28.601 254.438 29.768 M 266.325 29.658 C 267.497 30.830 264.826 33.000 262.211 33.000 C 260.812 33.000 259.975 33.308 260.351 33.684 C 260.727 34.061 260.240 34.449 259.268 34.547 C 258.295 34.646 256.907 34.900 256.181 35.113 C 254.400 35.636 246.974 43.000 248.228 43.000 C 248.775 43.000 248.159 43.885 246.861 44.967 C 245.562 46.048 244.906 46.948 245.403 46.967 C 245.900 46.985 245.268 47.900 244.000 49.000 C 242.732 50.100 242.213 51.000 242.847 51.000 C 243.481 51.000 243.100 51.900 242.000 53.000 C 240.254 54.746 239.759 56.202 240.085 58.638 C 240.132 58.989 239.718 59.556 239.166 59.898 C 238.613 60.239 238.012 61.179 237.830 61.986 C 237.649 62.792 236.912 64.084 236.192 64.855 C 235.473 65.627 235.122 66.875 235.411 67.629 C 235.700 68.383 235.562 69.000 235.104 69.000 C 234.216 69.000 230.667 77.574 230.667 79.720 C 230.667 80.424 230.265 81.000 229.774 81.000 C 229.284 81.000 229.160 81.450 229.500 82.000 C 229.840 82.550 229.713 83.000 229.217 83.000 C 228.472 83.000 227.655 84.963 225.474 92.000 C 225.389 92.275 224.558 94.207 223.628 96.294 C 222.698 98.381 222.245 100.588 222.623 101.199 C 223.013 101.830 222.857 102.030 222.261 101.661 C 221.673 101.298 220.922 102.177 220.548 103.663 C 219.962 105.999 219.709 106.138 218.407 104.836 C 217.266 103.695 217.171 102.809 217.989 100.930 C 219.028 98.541 219.037 98.546 218.504 101.250 C 218.197 102.806 218.405 104.000 218.981 104.000 C 219.541 104.000 220.000 102.965 220.000 101.699 C 220.000 99.065 222.132 94.019 223.250 94.008 C 223.663 94.004 224.000 93.523 224.000 92.941 C 224.000 91.168 221.938 93.033 220.910 95.736 C 220.379 97.134 219.724 98.057 219.454 97.788 C 219.185 97.518 219.863 95.318 220.960 92.899 C 222.058 90.480 223.003 88.950 223.059 89.500 C 223.116 90.050 223.289 89.375 223.443 88.000 C 223.597 86.625 224.948 82.350 226.444 78.500 C 227.941 74.650 229.433 70.606 229.761 69.513 C 230.089 68.420 233.212 61.919 236.701 55.066 C 242.848 42.996 246.367 37.615 246.625 39.895 C 246.788 41.339 247.071 40.936 247.504 38.642 C 247.979 36.124 251.534 32.482 255.355 30.597 C 258.549 29.021 265.125 28.458 266.325 29.658 M 217.359 107.416 C 218.150 107.112 219.095 107.344 219.458 107.932 C 219.821 108.519 219.710 109.000 219.211 109.000 C 218.050 109.000 214.878 116.994 215.585 118.138 C 215.878 118.612 215.593 119.000 214.952 119.000 C 214.309 119.000 214.053 119.696 214.382 120.552 C 214.771 121.566 214.575 121.856 213.819 121.388 C 213.045 120.910 212.872 121.225 213.299 122.336 C 213.650 123.251 213.545 124.000 213.066 124.000 C 211.859 124.000 209.879 129.996 210.666 131.269 C 211.069 131.920 210.814 132.003 209.985 131.490 C 209.034 130.903 208.833 131.123 209.274 132.271 C 209.611 133.151 209.537 134.012 209.108 134.185 C 207.808 134.710 201.947 151.106 202.652 152.246 C 203.013 152.831 202.860 153.031 202.311 152.692 C 201.222 152.019 198.762 158.806 199.602 160.165 C 199.886 160.624 199.593 161.000 198.952 161.000 C 198.309 161.000 198.053 161.696 198.382 162.552 C 198.771 163.566 198.575 163.856 197.819 163.388 C 197.045 162.910 196.872 163.225 197.299 164.336 C 197.650 165.251 197.536 166.000 197.046 166.000 C 196.556 166.000 195.635 167.575 195.000 169.500 C 193.956 172.665 191.000 174.489 191.000 171.968 C 191.000 170.705 194.736 159.508 195.933 157.184 C 197.723 153.710 202.006 142.451 202.003 141.229 C 201.998 139.263 212.257 113.924 212.827 114.494 C 213.104 114.771 213.444 113.985 213.582 112.749 C 213.720 111.512 214.420 109.150 215.137 107.500 C 215.854 105.850 216.323 105.280 216.180 106.234 C 216.007 107.386 216.403 107.783 217.359 107.416 "/></g>
<g fill="#FBFBFBFB" stroke="#FBFBFBFB">
<path d="M 80.500 206.722 C 73.506 208.437 64.228 215.599 61.117 221.684 C 59.292 225.252 59.767 234.533 62.016 239.261 C 63.126 241.592 67.468 247.775 71.666 253.000 C 75.865 258.225 82.464 266.775 86.332 272.000 C 96.834 286.187 109.053 300.857 115.150 306.601 C 123.975 314.914 130.742 315.867 138.915 309.947 C 144.470 305.923 146.992 301.564 146.996 295.977 C 146.999 292.321 145.880 289.446 141.158 280.977 C 137.945 275.215 133.481 267.575 131.239 264.000 C 128.997 260.425 123.020 250.525 117.958 242.000 C 105.431 220.906 102.410 216.531 97.212 211.955 C 91.559 206.979 86.242 205.314 80.500 206.722 M 64.097 235.716 C 63.714 233.085 63.648 230.681 63.950 230.374 C 64.253 230.067 64.566 232.220 64.647 235.158 L 64.794 240.500 64.097 235.716 "/></g>
<g fill="#FBFBFBFB" stroke="#FBFBFBFB">
<path d="M 138.456 243.750 C 138.826 245.263 140.225 247.531 141.565 248.790 C 142.904 250.050 144.000 251.583 144.000 252.196 C 144.000 252.809 145.049 254.704 146.332 256.406 C 148.640 259.469 152.193 265.780 159.431 279.676 C 161.487 283.622 163.831 287.105 164.640 287.415 C 165.532 287.758 171.692 283.819 180.305 277.400 C 188.112 271.581 196.638 265.443 199.250 263.761 C 206.348 259.189 205.669 257.721 195.250 255.111 C 190.438 253.905 182.675 251.857 178.000 250.560 C 156.326 244.546 142.278 241.000 140.130 241.000 C 138.073 241.000 137.866 241.340 138.456 243.750 M 153.500 245.946 C 157.900 247.110 164.269 248.692 167.653 249.459 C 171.038 250.227 175.776 251.524 178.183 252.341 C 180.590 253.158 184.239 254.142 186.291 254.527 C 189.876 255.199 192.511 257.030 189.809 256.972 C 189.089 256.956 183.325 255.556 177.000 253.860 C 170.675 252.164 160.623 249.759 154.661 248.514 C 148.075 247.139 143.171 245.566 142.161 244.505 C 140.599 242.863 140.649 242.791 143.000 243.293 C 144.375 243.587 149.100 244.781 153.500 245.946 "/></g>
<g fill="#18A15BFB" stroke="#18A15BFB">
<path d="M 246.257 253.844 C 245.291 254.820 240.000 258.662 234.500 262.381 C 211.195 278.139 201.733 284.788 195.902 289.500 C 186.524 297.080 174.021 309.074 171.405 313.000 C 170.122 314.925 167.648 318.514 165.906 320.976 C 161.240 327.572 158.039 336.986 157.456 345.823 L 156.949 353.500 159.033 346.000 C 161.820 335.967 165.051 329.089 170.716 321.123 C 181.661 305.734 194.274 294.937 227.500 272.514 C 242.217 262.582 251.000 255.626 251.000 253.904 C 251.000 252.259 247.865 252.219 246.257 253.844 "/></g>
<g fill="#FBFBFBFB" stroke="#FBFBFBFB">
<path d="M 301.674 317.039 C 300.120 324.849 298.178 333.547 297.358 336.369 C 296.538 339.191 295.024 344.425 293.993 348.000 C 288.866 365.783 287.143 370.386 281.550 381.243 C 274.110 395.684 267.943 403.446 253.143 417.000 C 233.254 435.213 214.719 444.436 185.545 450.638 C 178.486 452.139 176.485 452.796 180.000 452.457 C 194.063 451.105 200.874 449.429 210.902 444.855 C 213.324 443.750 216.137 443.064 217.154 443.330 C 218.171 443.596 218.759 443.419 218.461 442.937 C 217.805 441.876 224.838 438.782 226.113 439.570 C 226.609 439.876 227.271 439.458 227.584 438.641 C 227.898 437.823 229.582 436.412 231.327 435.504 C 239.521 431.243 244.805 427.510 252.215 420.750 C 254.476 418.688 256.954 417.000 257.722 417.000 C 258.490 417.000 258.870 416.599 258.568 416.109 C 258.265 415.620 259.223 414.429 260.696 413.464 C 263.813 411.421 267.629 407.086 270.585 402.228 C 271.732 400.343 272.901 398.958 273.182 399.151 C 274.317 399.927 276.841 396.750 276.271 395.263 C 275.833 394.122 276.035 393.904 276.985 394.490 C 277.866 395.035 278.070 394.923 277.595 394.155 C 277.203 393.520 277.359 393.000 277.941 393.000 C 278.523 393.000 279.000 392.161 279.000 391.135 C 279.000 390.109 279.937 388.078 281.082 386.622 C 283.499 383.551 293.000 360.706 293.000 357.968 C 293.000 356.950 293.450 355.840 294.000 355.500 C 294.550 355.160 295.000 353.928 295.000 352.762 C 295.000 350.924 295.768 347.963 297.791 342.000 C 298.071 341.175 298.467 339.635 298.670 338.578 C 298.873 337.522 299.405 336.172 299.852 335.578 C 300.299 334.985 300.767 332.250 300.893 329.500 C 301.018 326.750 301.513 323.150 301.992 321.500 C 302.472 319.850 303.379 316.700 304.009 314.500 C 304.638 312.300 305.006 308.776 304.826 306.669 C 304.582 303.796 303.794 306.386 301.674 317.039 "/></g>
<g fill="#18A15BFB" stroke="#18A15BFB">
<path d="M 255.355 30.572 C 251.520 32.494 247.977 36.135 247.504 38.642 C 247.071 40.936 246.788 41.339 246.625 39.895 C 246.367 37.615 242.848 42.996 236.701 55.066 C 233.212 61.919 230.089 68.420 229.761 69.513 C 229.433 70.606 227.941 74.650 226.444 78.500 C 224.948 82.350 223.597 86.625 223.443 88.000 C 223.289 89.375 223.116 90.050 223.059 89.500 C 223.003 88.950 222.058 90.480 220.960 92.899 C 219.863 95.318 219.185 97.518 219.454 97.788 C 219.724 98.057 220.379 97.134 220.910 95.736 C 221.938 93.033 224.000 91.168 224.000 92.941 C 224.000 93.523 223.663 94.004 223.250 94.008 C 222.132 94.019 220.000 99.065 220.000 101.699 C 220.000 102.965 219.541 104.000 218.981 104.000 C 218.405 104.000 218.197 102.806 218.504 101.250 C 219.037 98.546 219.028 98.541 217.989 100.930 C 217.191 102.764 217.259 103.688 218.268 104.696 C 219.383 105.811 220.904 102.769 227.455 86.325 C 231.774 75.485 236.775 63.441 238.568 59.558 C 240.362 55.676 241.829 52.100 241.829 51.612 C 241.829 51.123 242.216 50.448 242.688 50.112 C 243.573 49.481 246.999 44.372 247.075 43.569 C 247.142 42.856 254.771 35.523 255.681 35.296 C 257.249 34.905 263.509 32.729 264.827 32.117 C 267.510 30.870 266.393 29.493 262.500 29.248 C 260.300 29.109 257.085 29.705 255.355 30.572 "/></g>
<g fill="#FBFBFBFB" stroke="#FBFBFBFB">
<path d="M 292.239 49.500 C 292.036 54.608 290.942 60.795 288.310 71.738 C 288.012 72.974 287.299 73.685 286.716 73.324 C 286.052 72.914 285.905 73.310 286.320 74.391 C 286.682 75.336 286.059 78.672 284.935 81.805 C 283.811 84.937 282.218 89.525 281.395 92.000 C 280.572 94.475 279.517 97.400 279.051 98.500 C 277.693 101.698 275.527 107.455 275.476 108.000 C 275.450 108.275 274.870 109.506 274.187 110.736 C 273.504 111.965 272.533 114.890 272.030 117.236 C 271.090 121.621 267.184 132.893 266.914 132.000 C 266.831 131.725 266.846 131.925 266.946 132.445 C 267.047 132.964 266.689 134.314 266.150 135.445 C 265.611 136.575 264.709 139.300 264.145 141.500 C 263.011 145.924 260.537 153.614 258.514 159.000 C 254.697 169.168 251.831 180.189 252.406 182.483 C 253.419 186.519 254.861 185.382 254.274 181.010 C 253.977 178.794 254.219 176.441 254.817 175.720 C 255.848 174.479 257.192 169.909 258.937 161.721 C 259.380 159.643 260.475 157.133 261.371 156.143 C 262.267 155.153 263.000 153.487 263.000 152.441 C 263.000 151.395 263.859 148.280 264.909 145.519 C 265.959 142.759 268.306 135.775 270.125 130.000 C 271.944 124.225 273.673 119.275 273.966 119.000 C 274.260 118.725 274.635 117.600 274.799 116.500 C 275.253 113.459 279.471 101.398 283.017 93.000 C 284.759 88.875 286.551 83.925 286.999 82.000 C 287.447 80.075 288.355 76.925 289.017 75.000 C 291.195 68.663 292.240 61.630 292.360 52.500 C 292.425 47.550 292.371 46.200 292.239 49.500 "/></g>
<g fill="#18A15BFB" stroke="#18A15BFB">
<path d="M 215.137 107.500 C 214.420 109.150 213.720 111.512 213.582 112.749 C 213.444 113.985 213.104 114.771 212.827 114.494 C 212.257 113.924 201.998 139.263 202.003 141.229 C 202.006 142.451 197.723 153.710 195.933 157.184 C 194.736 159.508 191.000 170.705 191.000 171.968 C 191.000 172.536 191.675 173.000 192.500 173.000 C 193.325 173.000 194.000 172.847 194.000 172.660 C 194.000 172.075 211.575 125.954 215.379 116.556 C 219.555 106.241 219.472 106.605 217.460 107.377 C 216.395 107.786 216.000 107.433 216.180 106.234 C 216.323 105.280 215.854 105.850 215.137 107.500 "/></g>
<g fill="#18A15BFB" stroke="#18A15BFB">
<path d="M 148.000 193.973 C 137.029 195.278 132.000 198.442 132.000 204.038 C 132.000 206.095 132.180 206.049 135.473 203.158 C 142.212 197.241 154.391 195.562 185.750 196.225 C 209.994 196.738 217.621 195.668 197.250 194.612 C 175.178 193.467 154.506 193.199 148.000 193.973 "/></g>
<g fill="#18A15BFB" stroke="#18A15BFB">
<path d="M 127.000 358.329 C 127.000 364.025 121.532 371.939 114.053 377.067 C 105.709 382.788 98.163 384.341 90.034 382.010 C 87.922 381.404 86.222 381.378 85.657 381.943 C 83.861 383.739 95.844 386.303 103.166 385.689 C 116.983 384.531 128.509 373.441 129.013 360.819 C 129.254 354.786 129.137 354.000 128.000 354.000 C 127.450 354.000 127.000 355.948 127.000 358.329 "/></g>
<g fill="#18A15BFB" stroke="#18A15BFB">
<path d="M 41.245 272.977 C 33.458 274.825 27.489 281.365 24.638 291.174 C 23.015 296.757 22.365 305.968 23.687 304.646 C 24.065 304.268 25.115 301.156 26.021 297.730 C 26.927 294.303 27.855 290.842 28.084 290.037 C 28.821 287.443 35.392 280.848 39.158 278.923 C 41.170 277.895 44.658 276.759 46.908 276.399 C 51.351 275.688 52.371 273.601 48.750 272.630 C 46.119 271.925 45.571 271.951 41.245 272.977 "/></g>
<g fill="#18A15BFB" stroke="#18A15BFB">
<path d="M 76.637 209.405 C 69.057 212.224 60.991 222.559 61.014 229.421 L 61.028 233.500 63.264 229.066 C 64.494 226.627 67.787 222.278 70.581 219.400 C 76.042 213.777 80.588 211.834 89.227 211.428 C 92.986 211.252 93.665 210.967 92.546 210.038 C 90.290 208.166 80.966 207.795 76.637 209.405 "/></g>
<g fill="#18A15BFB" stroke="#18A15BFB">
<path d="M 77.000 24.777 C 71.595 25.638 67.137 32.129 66.747 39.706 L 66.500 44.500 67.760 40.358 C 69.186 35.667 75.720 29.106 79.253 28.815 C 82.954 28.511 85.455 28.210 86.250 27.974 C 86.663 27.851 87.519 27.694 88.154 27.625 C 88.908 27.543 88.821 27.115 87.904 26.389 C 86.234 25.067 80.501 24.219 77.000 24.777 "/></g>
<g fill="#18A15BFB" stroke="#18A15BFB">
<path d="M 142.138 244.482 C 143.125 245.520 148.092 247.098 154.638 248.453 C 160.612 249.689 170.763 252.118 177.196 253.851 C 189.679 257.212 191.432 257.508 190.570 256.113 C 190.269 255.626 188.343 254.912 186.291 254.527 C 184.239 254.142 180.590 253.158 178.183 252.341 C 175.776 251.524 171.038 250.227 167.653 249.459 C 164.269 248.692 157.900 247.110 153.500 245.946 C 149.100 244.781 144.375 243.587 143.000 243.293 C 140.663 242.794 140.607 242.871 142.138 244.482 "/></g>
<g fill="#18A15BFB" stroke="#18A15BFB">
<path d="M 213.033 197.317 C 213.326 197.637 215.143 198.061 217.070 198.259 C 218.997 198.457 221.155 198.978 221.865 199.417 C 222.576 199.856 225.710 200.357 228.829 200.530 C 231.948 200.702 235.625 201.274 237.000 201.801 C 240.939 203.308 251.098 205.235 251.737 204.596 C 252.056 204.278 252.931 204.528 253.682 205.151 C 254.434 205.775 255.279 206.055 255.560 205.773 C 256.520 204.813 249.207 202.001 243.348 201.077 C 240.131 200.570 235.700 199.688 233.500 199.118 C 228.862 197.915 212.243 196.453 213.033 197.317 "/></g>
<g fill="#FBFBFBFB" stroke="#FBFBFBFB">
<path d="M 137.195 453.429 C 142.275 454.856 165.946 455.187 170.122 453.890 C 173.101 452.964 170.202 452.741 153.818 452.632 C 140.054 452.541 134.912 452.787 137.195 453.429 "/></g>
<g fill="#18A15BFB" stroke="#18A15BFB">
<path d="M 129.966 330.922 C 124.712 331.952 123.793 332.744 125.074 335.138 C 125.804 336.502 126.695 336.929 127.827 336.455 C 128.747 336.071 131.413 335.324 133.750 334.797 C 136.940 334.077 138.000 333.360 138.000 331.919 C 138.000 329.852 136.427 329.657 129.966 330.922 "/></g>
<g fill="#D2FBFBFB" stroke="#D2FBFBFB">
<path d="M 80.326 86.198 C 83.326 95.109 86.348 102.986 86.650 102.683 C 86.854 102.479 86.339 100.377 85.504 98.011 C 84.669 95.646 83.796 92.659 83.563 91.374 C 83.330 90.088 82.377 88.016 81.447 86.768 C 80.400 85.366 79.972 85.148 80.326 86.198 "/></g>
<g fill="#18A15BFB" stroke="#18A15BFB">
<path d="M 220.500 440.916 C 218.300 441.912 215.375 443.208 214.000 443.796 C 212.060 444.625 211.913 444.880 213.346 444.932 C 214.361 444.970 216.386 444.376 217.846 443.613 C 219.306 442.850 221.850 441.666 223.500 440.982 C 225.150 440.297 226.050 439.596 225.500 439.422 C 224.950 439.248 222.700 439.920 220.500 440.916 "/></g>
<g fill="#FBFBFBFB" stroke="#FBFBFBFB">
<path d="M 122.000 452.000 C 122.825 452.533 125.300 452.931 127.500 452.885 C 130.970 452.812 131.169 452.695 129.000 452.000 C 127.625 451.560 125.150 451.161 123.500 451.115 C 121.215 451.051 120.857 451.262 122.000 452.000 "/></g>
<g fill="#FBFBFBFB" stroke="#FBFBFBFB">
<path d="M 100.000 447.500 C 100.760 448.416 102.853 448.974 105.372 448.933 L 109.500 448.865 104.500 447.477 C 101.750 446.713 99.332 446.068 99.128 446.044 C 98.923 446.020 99.315 446.675 100.000 447.500 "/></g>
<g fill="#18A15BFB" stroke="#18A15BFB">
<path d="M 275.000 396.063 C 271.179 400.898 270.067 403.560 273.689 399.203 C 275.443 397.093 277.018 394.811 277.189 394.133 C 277.360 393.455 276.375 394.324 275.000 396.063 "/></g>
<g fill="#FBFBFBFB" stroke="#FBFBFBFB">
<path d="M 305.648 245.500 C 305.996 248.250 306.443 250.688 306.641 250.917 C 307.497 251.910 306.874 243.354 305.991 242.000 C 305.324 240.976 305.215 242.087 305.648 245.500 "/></g>
<g fill="#18A15BFB" stroke="#18A15BFB">
<path d="M 246.197 425.978 C 244.931 426.994 242.906 428.550 241.697 429.436 C 239.640 430.943 239.699 430.951 242.626 429.561 C 244.345 428.745 246.370 427.189 247.126 426.103 C 248.477 424.163 248.461 424.160 246.197 425.978 "/></g>
<g fill="#D2FBFBFB" stroke="#D2FBFBFB">
<path d="M 35.653 349.000 C 36.001 350.375 36.903 353.075 37.658 355.000 C 38.832 357.995 38.948 358.083 38.461 355.610 C 38.148 354.021 37.246 351.321 36.456 349.610 C 35.376 347.271 35.177 347.120 35.653 349.000 "/></g>
<g fill="#FBFBFBFB" stroke="#FBFBFBFB">
<path d="M 112.000 449.970 C 112.825 450.520 115.038 450.976 116.917 450.985 C 121.400 451.005 120.601 450.438 115.000 449.625 C 111.855 449.168 110.952 449.272 112.000 449.970 "/></g>
<g fill="#18A15BFB" stroke="#18A15BFB">
<path d="M 253.594 419.501 C 251.996 420.876 251.096 421.998 251.594 421.995 C 252.872 421.988 258.718 417.080 257.500 417.037 C 256.950 417.018 255.193 418.127 253.594 419.501 "/></g>
<g fill="#D2FBFBFB" stroke="#D2FBFBFB">
<path d="M 108.076 163.550 C 108.118 164.073 108.799 166.075 109.589 168.000 L 111.026 171.500 110.494 168.031 C 110.028 164.989 107.871 160.992 108.076 163.550 "/></g>
<g fill="#18A15BFB" stroke="#18A15BFB">
<path d="M 258.441 206.514 C 259.509 207.331 261.309 207.968 262.441 207.930 C 263.714 207.886 262.974 207.319 260.500 206.444 C 256.943 205.185 256.715 205.193 258.441 206.514 "/></g>
<g fill="#D2FBFBFB" stroke="#D2FBFBFB">
<path d="M 114.500 184.000 C 114.899 185.375 115.675 186.950 116.225 187.500 C 116.891 188.167 116.983 187.667 116.500 186.000 C 116.101 184.625 115.325 183.050 114.775 182.500 C 114.109 181.833 114.017 182.333 114.500 184.000 "/></g>
<g fill="#D2FBFBFB" stroke="#D2FBFBFB">
<path d="M 100.579 142.000 C 100.944 143.375 101.624 145.175 102.091 146.000 C 102.845 147.333 102.939 147.333 102.934 146.000 C 102.931 145.175 102.251 143.375 101.423 142.000 L 99.917 139.500 100.579 142.000 "/></g>
<g fill="#18A15BFB" stroke="#18A15BFB">
<path d="M 229.750 436.392 C 228.788 437.123 228.000 438.041 228.000 438.433 C 228.000 438.825 229.186 438.212 230.635 437.073 C 232.084 435.933 232.872 435.014 232.385 435.032 C 231.898 435.049 230.713 435.661 229.750 436.392 "/></g>
<g fill="#18A15BFB" stroke="#18A15BFB">
<path d="M 260.000 414.121 C 258.625 415.130 258.020 415.966 258.656 415.978 C 259.292 415.990 260.417 415.164 261.156 414.143 C 262.463 412.338 262.431 412.337 260.000 414.121 "/></g>
<g fill="#18A15BFB" stroke="#18A15BFB">
<path d="M 164.500 389.000 C 164.160 389.550 164.557 390.000 165.382 390.000 C 166.207 390.000 167.160 389.550 167.500 389.000 C 167.840 388.450 167.443 388.000 166.618 388.000 C 165.793 388.000 164.840 388.450 164.500 389.000 "/></g>
<g fill="#D2FBFBFB" stroke="#D2FBFBFB">
<path d="M 111.141 173.000 C 111.141 173.825 111.527 175.400 112.000 176.500 C 112.542 177.761 112.859 177.945 112.859 177.000 C 112.859 176.175 112.473 174.600 112.000 173.500 C 111.458 172.239 111.141 172.055 111.141 173.000 "/></g>
<g fill="#FBFBFBFB" stroke="#FBFBFBFB">
<path d="M 86.000 442.000 C 86.825 442.533 88.175 442.945 89.000 442.914 C 89.989 442.878 89.819 442.567 88.500 442.000 C 85.751 440.819 84.172 440.819 86.000 442.000 "/></g>
<g fill="#18A15BFB" stroke="#18A15BFB">
<path d="M 203.000 448.000 C 201.707 448.835 201.734 448.971 203.191 448.985 C 204.121 448.993 205.160 448.550 205.500 448.000 C 206.282 446.734 204.958 446.734 203.000 448.000 "/></g>
<g fill="#18A15BFB" stroke="#18A15BFB">
<path d="M 297.667 341.667 C 297.300 342.033 297.014 343.046 297.030 343.917 C 297.055 345.217 297.251 345.174 298.122 343.675 C 299.199 341.823 298.887 340.447 297.667 341.667 "/></g>
<g fill="#D2FBFBFB" stroke="#D2FBFBFB">
<path d="M 43.015 369.691 C 43.024 370.136 43.467 371.175 44.000 372.000 C 44.835 373.293 44.971 373.266 44.985 371.809 C 44.993 370.879 44.550 369.840 44.000 369.500 C 43.450 369.160 43.007 369.246 43.015 369.691 "/></g>
<g fill="#D2FBFBFB" stroke="#D2FBFBFB">
<path d="M 32.086 337.500 C 32.190 339.394 33.856 342.584 33.914 341.000 C 33.945 340.175 33.533 338.825 33.000 338.000 C 32.467 337.175 32.055 336.950 32.086 337.500 "/></g>
<g fill="#D2FBFBFB" stroke="#D2FBFBFB">
<path d="M 106.086 157.500 C 106.190 159.394 107.856 162.584 107.914 161.000 C 107.945 160.175 107.533 158.825 107.000 158.000 C 106.467 157.175 106.055 156.950 106.086 157.500 "/></g>
<g fill="#D2FBFBFB" stroke="#D2FBFBFB">
<path d="M 87.086 104.500 C 87.190 106.394 88.856 109.584 88.914 108.000 C 88.945 107.175 88.533 105.825 88.000 105.000 C 87.467 104.175 87.055 103.950 87.086 104.500 "/></g>
<g fill="#18A15BFB" stroke="#18A15BFB">
<path d="M 278.000 106.000 C 277.835 106.550 277.700 107.450 277.700 108.000 C 277.700 108.667 277.800 108.667 278.000 108.000 C 278.165 107.450 278.300 106.550 278.300 106.000 C 278.300 105.333 278.200 105.333 278.000 106.000 "/></g>
<g fill="#D2FBFBFB" stroke="#D2FBFBFB">
<path d="M 39.031 359.500 C 39.031 360.050 39.467 361.175 40.000 362.000 C 40.533 362.825 40.969 363.050 40.969 362.500 C 40.969 361.950 40.533 360.825 40.000 360.000 C 39.467 359.175 39.031 358.950 39.031 359.500 "/></g>
<g fill="#D2FBFBFB" stroke="#D2FBFBFB">
<path d="M 127.750 337.628 C 127.338 338.016 127.042 339.046 127.093 339.917 C 127.146 340.802 127.476 340.492 127.843 339.212 C 128.205 337.953 128.163 337.241 127.750 337.628 "/></g>
<g fill="#D2FBFBFB" stroke="#D2FBFBFB">
<path d="M 103.031 149.500 C 103.031 150.050 103.467 151.175 104.000 152.000 C 104.533 152.825 104.969 153.050 104.969 152.500 C 104.969 151.950 104.533 150.825 104.000 150.000 C 103.467 149.175 103.031 148.950 103.031 149.500 "/></g>
<g fill="#D2FBFBFB" stroke="#D2FBFBFB">
<path d="M 89.031 110.500 C 89.031 111.050 89.467 112.175 90.000 113.000 C 90.533 113.825 90.969 114.050 90.969 113.500 C 90.969 112.950 90.533 111.825 90.000 111.000 C 89.467 110.175 89.031 109.950 89.031 110.500 "/></g>
<g fill="#D2FBFBFB" stroke="#D2FBFBFB">
<path d="M 77.031 77.500 C 77.031 78.050 77.467 79.175 78.000 80.000 C 78.533 80.825 78.969 81.050 78.969 80.500 C 78.969 79.950 78.533 78.825 78.000 78.000 C 77.467 77.175 77.031 76.950 77.031 77.500 "/></g>
</svg>
